inDegrees=no
num_controls=7
num_derivatives=13
num_iterations=147
num_multipliers=7
num_parameters=0
num_slacks=7
num_states=26
objective=5.965967
objective_accelerations=1.015987
objective_balance=0.046967
objective_effort=0.673420
objective_height=4.148792
objective_ligament=0.080803
solver_duration=1364.037155
status=Solve_Succeeded
success=true
DataType=double
version=3
OpenSimVersion=4.4-2022-07-23-0e9fedc
endheader
time	/jointset/ground_pelvis/pelvis_tilt/value	/jointset/ground_pelvis/pelvis_tx/value	/jointset/ground_pelvis/pelvis_ty/value	/jointset/hip_l/hip_flexion_l/value	/jointset/hip_l/hip_adduction_l/value	/jointset/hip_l/hip_rotation_l/value	/jointset/back/lumbar_extension/value	/jointset/patellofemoral_l/patellar_flexion_l/value	/jointset/knee_l/knee_flexion_l/value	/jointset/knee_l/knee_adduction_l/value	/jointset/knee_l/knee_rotation_l/value	/jointset/ankle_l/ankle_angle_l/value	/jointset/subtalar_l/subtalar_angle_l/value	/jointset/ground_pelvis/pelvis_tilt/speed	/jointset/ground_pelvis/pelvis_tx/speed	/jointset/ground_pelvis/pelvis_ty/speed	/jointset/hip_l/hip_flexion_l/speed	/jointset/hip_l/hip_adduction_l/speed	/jointset/hip_l/hip_rotation_l/speed	/jointset/back/lumbar_extension/speed	/jointset/patellofemoral_l/patellar_flexion_l/speed	/jointset/knee_l/knee_flexion_l/speed	/jointset/knee_l/knee_adduction_l/speed	/jointset/knee_l/knee_rotation_l/speed	/jointset/ankle_l/ankle_angle_l/speed	/jointset/subtalar_l/subtalar_angle_l/speed	/forceset/tau_hip_flexion_l	/forceset/tau_hip_adduction_l	/forceset/tau_hip_rotation_l	/forceset/tau_knee_flexion_l	/forceset/tau_ankle_angle_l	/forceset/tau_subtalar_angle_l	/forceset/tau_lumbar_extension	lambda_cid13_p0	lambda_cid13_p1	lambda_cid13_p2	lambda_cid13_p3	lambda_cid13_p4	lambda_cid13_p5	lambda_cid14_p0	/jointset/ground_pelvis/pelvis_tilt/accel	/jointset/ground_pelvis/pelvis_tx/accel	/jointset/ground_pelvis/pelvis_ty/accel	/jointset/hip_l/hip_flexion_l/accel	/jointset/hip_l/hip_adduction_l/accel	/jointset/hip_l/hip_rotation_l/accel	/jointset/back/lumbar_extension/accel	/jointset/patellofemoral_l/patellar_flexion_l/accel	/jointset/knee_l/knee_flexion_l/accel	/jointset/knee_l/knee_adduction_l/accel	/jointset/knee_l/knee_rotation_l/accel	/jointset/ankle_l/ankle_angle_l/accel	/jointset/subtalar_l/subtalar_angle_l/accel	gamma_cid13_p0	gamma_cid13_p1	gamma_cid13_p2	gamma_cid13_p3	gamma_cid13_p4	gamma_cid13_p5	gamma_cid14_p0
0	-0.03476147112438007	0.05577907586827795	0.9203778864024179	0.3085811930696054	-0.2950518376220827	-0.2886667402937376	-0.3879500408040475	0.2499276582270842	0.249927658227084	-0.1745328432564562	-0.1618356474924871	-0.0008036543073733089	0.000881293917389644	0	0	0	0	0	0	0	0	0	0	0	0	0	0.09455633293529388	-0.03612042920560195	-0.01483009204548793	-0.2170242161291888	0.1228292468751038	-0.01900975115345609	-0.03411093075892017	-2.445695456207432	6.106115884501107	1.516955408835158	42.47236021390903	-582.8272899023507	-63.91315269668336	-22.77539814136575	-2.271796648380235	-3.390353299893155	-1.51325415543267	15.9642017915429	-0.676061240242892	4.379134028871586	-9.309353070567017	15.14561206445083	15.14561206445073	3.322124400663257	-0.770104934726882	2.518871097720695	0.1164255818947695	4.689050703822219e-08	3.300749632507474e-07	6.336339143581993e-08	-4.78936780574508e-08	3.999939235916716e-07	2.839973822823511e-08	2.458377404419624e-08
0.01	-0.03486853734597063	0.0556123349166317	0.920303867974791	0.3093602383362844	-0.2950861250838827	-0.2884471996874187	-0.3884138252471795	0.2506711077176738	0.2506711077177621	-0.1743724459329436	-0.161869537745191	-0.0006798915633864689	0.0008858513172010281	-0.02130368299725181	-0.03309297980575981	-0.01475036728614427	0.1549413234048351	-0.006800171270860176	0.0436832013755875	-0.09198406991475891	0.1479676834234706	0.1479676834234734	0.03194505002538047	-0.006722295686176579	0.02475262042923181	0.000973253824753145	0.08725888044282894	-0.04228438515974507	-0.01417560917215976	-0.2133438974060558	0.1191339406347567	-0.00969073243291549	-0.02655581132132932	-3.430162040686576	2.28980235114995	2.058488667543453	40.34809998902579	-586.9109314319243	-71.23976660973432	-22.78492372193227	-2.043235418287407	-3.23049832172856	-1.44785028053668	15.12893031929419	-0.6734681618614164	4.329183260011466	-9.027011144612567	14.51400935838381	14.51400935838433	3.110598468714389	-0.6149297099648026	2.453481390216915	0.09698059815232166	-8.898811905211692e-09	2.96623493361122e-07	2.260834703255205e-07	1.888120053328147e-08	1.24615882808054e-07	-9.886882014214848e-08	1.038069528217439e-08
0.02	-0.0351853566561318	0.05512231856676499	0.9200839614212361	0.3116626633778848	-0.2951867088766572	-0.2877975730537236	-0.3897742658279969	0.2528725666180482	0.25287256661805	-0.1738966174761011	-0.1619689785194444	-0.0003085978401693197	0.0009019823183372445	-0.04195061771004963	-0.06465507964409434	-0.02917762518558656	0.3046759549832772	-0.01325926619587009	0.08601720547555453	-0.1793312275367683	0.2916018819304819	0.2916018819304879	0.06308622666031906	-0.01311010434844022	0.04950619584615505	0.002314720264973088	0.07996142795052955	-0.04844834111390527	-0.01352112629994788	-0.2096635786826772	0.1154386343944439	-0.0003717137123659516	-0.0190006918836274	-4.29355711568647	-1.544797832639756	2.599607199711222	38.0833354518025	-589.1530301746118	-78.42102902721685	-22.81278651732121	-2.140446991489171	-3.08417730640831	-1.448632278092276	14.92286342626427	-0.6078459710728538	4.109294573747467	-8.381970612016898	14.27891508115896	14.27891508115892	3.161349722574865	-0.7032075299443279	2.519062095258721	0.1900681049880324	-6.468813084864558e-08	2.631720234714966e-07	3.888035492152211e-07	8.565607912401375e-08	-1.507621579755636e-07	-2.261373785125321e-07	-3.822383479847469e-09
0.03	-0.03570577799204371	0.05432403179670567	0.9197207176414179	0.3154377413770137	-0.2953499895062883	-0.2867322366726468	-0.3919856085299273	0.2564892190844415	0.2564892190844115	-0.1731133106074071	-0.1621312078227074	0.0003097747692420683	0.0009334083848425529	-0.06201077695795667	-0.09477720877409058	-0.0434749751816542	0.4495281671501795	-0.01934208682051808	0.1268355346601434	-0.2622897880984354	0.431032495180811	0.4310324951807683	0.09339368347095535	-0.01924884368661077	0.07411904946103094	0.00401186040330067	0.07262722986385411	-0.04341177907498354	-0.01286150728515851	-0.205729064853059	0.1141889774071981	-0.001895826611968957	-0.01213788455733089	-4.721124778433016	-0.8499630005498753	2.536751217418419	36.55877563760021	-589.9953513540001	-75.87999742479762	-22.85743924458022	-1.92037389026088	-2.942453476726319	-1.420894285969307	14.14466969320792	-0.6003860910922444	4.035874613594675	-8.15567006505001	13.67071784435292	13.67071784434586	2.938310427125824	-0.5561118098006239	2.425014439289933	0.16565491566205	-1.01233855543037e-07	1.973739168681245e-07	5.021792898643094e-07	1.230878377777757e-07	-3.25715801517481e-07	-3.208148709920217e-07	-1.846441953320664e-08
0.04	-0.03642311562022383	0.05323127918325993	0.919214378776517	0.3206369954140622	-0.2955724755387485	-0.2852651624951657	-0.395007111094843	0.2614792943627707	0.2614792943627693	-0.1720323558172361	-0.1623522054542255	0.001172799403739381	0.000983029442212441	-0.08133387615854198	-0.1235482483213803	-0.0577966422021056	0.5895111625693007	-0.02510034676241908	0.1663647647559237	-0.3413632001324014	0.56628644432645	0.566286444326361	0.1226158109542996	-0.02486376998666381	0.09843660086341201	0.005953718437902023	0.06529303177717602	-0.03837521703607167	-0.0122018882699939	-0.2017945510235325	0.112939320419924	-0.003419939511596741	-0.005275077231010419	-5.040692895729558	-0.1692715708661373	2.47070333639858	34.89625565859818	-589.2076621168247	-73.1988939830327	-22.91684274830206	-1.993034982024553	-2.813959389867182	-1.453495682969028	13.94902007670803	-0.5429338345234548	3.851474755985726	-7.604940906476457	13.44358226022093	13.44358226022135	2.94428385711646	-0.5984449223208596	2.460001652759534	0.2390116842427153	-1.373828050982729e-07	1.309088693015824e-07	6.145376214775089e-07	1.599145836493322e-07	-4.985988389307035e-07	-4.14820382731493e-07	-3.311550625236659e-08
